# xmcd
#
# Track frame offsets:
#	150
#	14347
#	29410
#	44100
#	59415
#	74452
#	89307
#	104140
#	118942
#	133062
#	148710
#	161310
#	175910
#	193182
#
# Disc length: 2765 seconds
#
# Revision: 1
# Processed by: cddbd v1.5.2PL0 Copyright (c) Steve Scherf et al.
# Submitted via: audiograbber 1.83.01
#
DISCID=d80acb0e
DTITLE=Jo-El Sonnier - Cajun Tradition
DYEAR=2000
DGENRE=Cajun
TTITLE0=Vien Dans My J'oin
TTITLE1=Les Flammes d'enter
TTITLE2=Jolie Fille
TTITLE3=Midland Two Step
TTITLE4=Allons A' Lafayette
TTITLE5=Chere Bassette
TTITLE6=One Step de Chameau
TTITLE7=Lake Arthur Stomp
TTITLE8=Chere Yeaux Bleu
TTITLE9=Port Arthur Blues
TTITLE10=Les Grande Bois
TTITLE11=Rolling Pin
TTITLE12=Ma Chere Bebe Creole
TTITLE13=Step It Fast
EXTD=
EXTT0=
EXTT1=
EXTT2=
EXTT3=
EXTT4=
EXTT5=
EXTT6=
EXTT7=
EXTT8=
EXTT9=
EXTT10=
EXTT11=
EXTT12=
EXTT13=
PLAYORDER=
